<svg width="439" height="626" viewBox="0 0 439 626" fill="none" xmlns="http://www.w3.org/2000/svg">
<mask id="mask0_1017_100" style="mask-type:alpha" maskUnits="userSpaceOnUse" x="0" y="0" width="439" height="626">
<rect width="438.2" height="626" rx="20" fill="#4361EE"/>
<rect width="438.2" height="626" rx="20" fill="url(#paint0_linear_1017_100)"/>
</mask>
<g mask="url(#mask0_1017_100)">
<ellipse cx="413.72" cy="51.5529" rx="121.586" ry="137.168" fill="url(#paint1_linear_1017_100)" fill-opacity="0.41"/>
<path d="M413.719 -85.1147C480.538 -85.1147 534.806 -23.9846 534.806 51.5532C534.806 127.091 480.538 188.22 413.719 188.22C346.9 188.22 292.633 127.091 292.633 51.5532C292.633 -23.9845 346.9 -85.1146 413.719 -85.1147Z" stroke="white" stroke-opacity="0.28"/>
<ellipse cx="271.325" cy="357.648" rx="94.2497" ry="106.328" fill="url(#paint2_linear_1017_100)" fill-opacity="0.07"/>
<path d="M271.325 251.821C323.047 251.821 365.074 299.143 365.074 357.649C365.074 416.154 323.047 463.477 271.325 463.477C219.604 463.477 177.575 416.154 177.575 357.649C177.575 299.143 219.604 251.821 271.325 251.821Z" stroke="white" stroke-opacity="0.1"/>
<path d="M191.763 637.047C191.763 623.991 189.252 611.062 184.372 598.999C179.492 586.937 172.339 575.976 163.322 566.744C154.305 557.512 143.6 550.188 131.818 545.192C120.037 540.195 107.41 537.624 94.6576 537.624C81.9055 537.624 69.2783 540.195 57.4969 545.192C45.7155 550.188 35.0106 557.512 25.9935 566.744C16.9764 575.976 9.82364 586.937 4.94361 598.999C0.0635927 611.062 -2.44812 623.991 -2.44812 637.047L34.3763 637.047C34.3763 628.942 35.9356 620.916 38.965 613.428C41.9944 605.94 46.4347 599.136 52.0323 593.404C57.63 587.673 64.2753 583.127 71.589 580.025C78.9027 576.923 86.7414 575.327 94.6577 575.327C102.574 575.327 110.413 576.923 117.726 580.025C125.04 583.127 131.685 587.673 137.283 593.404C142.881 599.136 147.321 605.94 150.35 613.428C153.38 620.916 154.939 628.942 154.939 637.047H191.763Z" fill="url(#paint3_linear_1017_100)" fill-opacity="0.25"/>
<path d="M-35.9639 64.8704C-31.2566 76.798 -24.3008 87.4564 -15.4937 96.2369C-6.68659 105.017 3.79936 111.748 15.3655 116.045C26.9316 120.341 39.3513 122.12 51.9156 121.278C64.4798 120.437 76.9426 116.992 88.5922 111.14C100.242 105.289 110.85 97.1454 119.812 87.1748C128.773 77.2042 135.912 65.6019 140.821 53.0301C145.73 40.4584 148.313 27.1635 148.422 13.9045C148.531 0.645469 146.164 -12.318 141.457 -24.2456L107.816 -7.34836C110.739 0.0561139 112.208 8.10355 112.14 16.3345C112.072 24.5654 110.469 32.8186 107.422 40.6229C104.374 48.4272 99.9424 55.6297 94.3793 61.8192C88.8162 68.0087 82.2307 73.064 74.9989 76.6965C67.767 80.329 60.0304 82.4674 52.2307 82.9898C44.4311 83.5122 36.7212 82.4083 29.5412 79.741C22.3612 77.0738 15.8517 72.8956 10.3844 67.4448C4.91714 61.994 0.599136 55.3775 -2.32306 47.9731L-35.9639 64.8704Z" fill="url(#paint4_linear_1017_100)" fill-opacity="0.25"/>
<path d="M384.867 -4.00813C381.366 14.051 364.465 47.9748 339.85 49.5192C315.236 51.0637 287.332 24.13 279.744 8.67896C272.156 -6.77212 231.202 -38.9845 224.444 -10.387C215.239 28.5648 212.11 44.1779 195.246 21.6979C178.382 -0.782214 176.102 27.1169 154.329 7.36723C136.911 -8.43248 134.691 -53.4918 98.5537 -27.1016" stroke="white" stroke-opacity="0.28" stroke-width="2"/>
<ellipse cx="428.408" cy="637.047" rx="121.586" ry="137.168" fill="url(#paint5_linear_1017_100)" fill-opacity="0.41"/>
<path d="M428.408 500.379C495.227 500.379 549.495 561.51 549.495 637.047C549.494 712.585 495.227 773.714 428.408 773.714C361.589 773.714 307.322 712.585 307.322 637.047C307.322 561.51 361.589 500.38 428.408 500.379Z" stroke="white" stroke-opacity="0.28"/>
</g>
<defs>
<linearGradient id="paint0_linear_1017_100" x1="219.519" y1="268.812" x2="60.6222" y2="1552.92" gradientUnits="userSpaceOnUse">
<stop stop-color="white" stop-opacity="0"/>
<stop offset="1" stop-color="white"/>
</linearGradient>
<linearGradient id="paint1_linear_1017_100" x1="512.865" y1="-61.2192" x2="220.883" y2="200.841" gradientUnits="userSpaceOnUse">
<stop stop-color="white"/>
<stop offset="1" stop-color="white" stop-opacity="0"/>
</linearGradient>
<linearGradient id="paint2_linear_1017_100" x1="348.18" y1="270.231" x2="284.096" y2="425.845" gradientUnits="userSpaceOnUse">
<stop stop-color="white"/>
<stop offset="1" stop-color="white" stop-opacity="0"/>
</linearGradient>
<linearGradient id="paint3_linear_1017_100" x1="11.4241" y1="537.624" x2="181.971" y2="537.624" gradientUnits="userSpaceOnUse">
<stop stop-color="white"/>
<stop offset="1" stop-color="white" stop-opacity="0"/>
</linearGradient>
<linearGradient id="paint4_linear_1017_100" x1="164.63" y1="72.9477" x2="3.10107" y2="136.696" gradientUnits="userSpaceOnUse">
<stop stop-color="white"/>
<stop offset="1" stop-color="white" stop-opacity="0"/>
</linearGradient>
<linearGradient id="paint5_linear_1017_100" x1="527.554" y1="524.275" x2="235.571" y2="786.335" gradientUnits="userSpaceOnUse">
<stop stop-color="white"/>
<stop offset="1" stop-color="white" stop-opacity="0"/>
</linearGradient>
</defs>
</svg>
