<svg width="118" height="93" viewBox="0 0 118 93" fill="none" xmlns="http://www.w3.org/2000/svg">
<path d="M98.6026 7.13737C87.1272 -3.87443 70.783 -0.851948 61.803 7.47379C55.2415 13.5664 44.9052 22.4008 36.9026 22.0167C28.9689 21.6326 19.8988 16.1306 10.042 20.369C0.314957 24.5438 -2.34197 38.3529 2.05534 48.9117C6.46853 59.5076 22.5717 68.1195 42.0549 76.1512C49.2124 79.1491 56.907 80.6527 64.6666 80.5697C64.6666 80.5697 82.3035 80.3869 88.9312 76.1459C94.1205 72.8188 96.343 70.6334 101.954 62.1646C106.192 55.754 109.032 46.7422 109.35 38.0112C109.749 27.3438 107.175 15.3651 98.6026 7.13737Z" fill="#B5B5DC" fill-opacity="0.25"/>
<path opacity="0.8" d="M98.6026 7.13737C87.1272 -3.87443 70.783 -0.851948 61.803 7.47379C55.2415 13.5664 44.9052 22.4008 36.9026 22.0167C28.9689 21.6326 19.8988 16.1306 10.042 20.369C0.314957 24.5438 -2.34197 38.3529 2.05534 48.9117C6.46853 59.5076 22.5717 68.1195 42.0549 76.1512C49.2124 79.1491 56.907 80.6527 64.6666 80.5697C64.6666 80.5697 82.3035 80.3869 88.9312 76.1459C94.1205 72.8188 96.343 70.6334 101.954 62.1646C106.192 55.754 109.032 46.7422 109.35 38.0112C109.749 27.3438 107.175 15.3651 98.6026 7.13737Z" fill="white"/>
<path d="M52.3754 90.4696C79.7553 90.4696 101.951 89.1496 101.951 87.5213C101.951 85.893 79.7553 84.573 52.3754 84.573C24.9956 84.573 2.7998 85.893 2.7998 87.5213C2.7998 89.1496 24.9956 90.4696 52.3754 90.4696Z" fill="#B5B5DC" fill-opacity="0.25"/>
<path opacity="0.6" d="M52.3754 90.4696C79.7553 90.4696 101.951 89.1496 101.951 87.5213C101.951 85.893 79.7553 84.573 52.3754 84.573C24.9956 84.573 2.7998 85.893 2.7998 87.5213C2.7998 89.1496 24.9956 90.4696 52.3754 90.4696Z" fill="white"/>
<g clip-path="url(#clip0_1004_100)">
<path d="M76.2836 72.2224V92.2304H25.9403C20.2044 92.2304 15.5376 87.7424 15.5376 82.2264C15.5376 76.7103 20.2044 72.2224 25.9403 72.2224H76.2836Z" fill="#F2F2F2"/>
<path d="M77.5206 92.0765C77.5205 92.2806 77.439 92.4763 77.2941 92.6206C77.1492 92.7649 76.9527 92.846 76.7477 92.846H25.0441C22.236 92.846 19.5429 91.7353 17.5572 89.7582C15.5716 87.781 14.4561 85.0995 14.4561 82.3034C14.4561 79.5073 15.5716 76.8257 17.5572 74.8486C19.5429 72.8715 22.236 71.7607 25.0441 71.7607H76.7477C76.9527 71.7607 77.1493 71.8418 77.2942 71.9861C77.4391 72.1305 77.5206 72.3262 77.5206 72.5303C77.5206 72.7344 77.4391 72.9301 77.2942 73.0744C77.1493 73.2187 76.9527 73.2998 76.7477 73.2998H25.0441C22.6459 73.2998 20.346 74.2484 18.6502 75.9369C16.9544 77.6254 16.0018 79.9155 16.0018 82.3034C16.0018 84.6913 16.9544 86.9814 18.6502 88.6699C20.346 90.3584 22.6459 91.307 25.0441 91.307H76.7477C76.9527 91.307 77.1492 91.3881 77.2941 91.5324C77.439 91.6767 77.5205 91.8724 77.5206 92.0765Z" fill="#FF0080"/>
<path d="M76.2838 76.8398H22.1844C22.1434 76.8398 22.104 76.8236 22.0751 76.7947C22.0461 76.7659 22.0298 76.7267 22.0298 76.6859C22.0298 76.6451 22.0461 76.6059 22.0751 76.5771C22.104 76.5482 22.1434 76.532 22.1844 76.532H76.2838C76.3248 76.532 76.3641 76.5482 76.3931 76.5771C76.4221 76.6059 76.4384 76.6451 76.4384 76.6859C76.4384 76.7267 76.4221 76.7659 76.3931 76.7947C76.3641 76.8236 76.3248 76.8398 76.2838 76.8398Z" fill="#CCCCCC"/>
<path d="M76.2838 80.5334H22.1844C22.1434 80.5334 22.104 80.5172 22.0751 80.4883C22.0461 80.4595 22.0298 80.4203 22.0298 80.3795C22.0298 80.3387 22.0461 80.2995 22.0751 80.2707C22.104 80.2418 22.1434 80.2256 22.1844 80.2256H76.2838C76.3248 80.2256 76.3641 80.2418 76.3931 80.2707C76.4221 80.2995 76.4384 80.3387 76.4384 80.3795C76.4384 80.4203 76.4221 80.4595 76.3931 80.4883C76.3641 80.5172 76.3248 80.5334 76.2838 80.5334Z" fill="#CCCCCC"/>
<path d="M76.2838 84.2272H22.1844C22.1434 84.2272 22.104 84.211 22.0751 84.1822C22.0461 84.1533 22.0298 84.1142 22.0298 84.0733C22.0298 84.0325 22.0461 83.9934 22.0751 83.9645C22.104 83.9357 22.1434 83.9194 22.1844 83.9194H76.2838C76.3248 83.9194 76.3641 83.9357 76.3931 83.9645C76.4221 83.9934 76.4384 84.0325 76.4384 84.0733C76.4384 84.1142 76.4221 84.1533 76.3931 84.1822C76.3641 84.211 76.3248 84.2272 76.2838 84.2272Z" fill="#CCCCCC"/>
<path d="M76.2838 87.9211H22.1844C22.1434 87.9211 22.104 87.9049 22.0751 87.876C22.0461 87.8472 22.0298 87.808 22.0298 87.7672C22.0298 87.7264 22.0461 87.6872 22.0751 87.6584C22.104 87.6295 22.1434 87.6133 22.1844 87.6133H76.2838C76.3248 87.6133 76.3641 87.6295 76.3931 87.6584C76.4221 87.6872 76.4384 87.7264 76.4384 87.7672C76.4384 87.808 76.4221 87.8472 76.3931 87.876C76.3641 87.9049 76.3248 87.9211 76.2838 87.9211Z" fill="#CCCCCC"/>
<path d="M115.192 75.9888L102.584 91.5686L63.3831 60.1176C58.9166 56.5342 58.1106 50.124 61.5864 45.8288C65.0622 41.5335 71.5241 40.9544 75.9905 44.5378L115.192 75.9888Z" fill="#F2F2F2"/>
<path d="M103.644 92.2212C103.516 92.38 103.329 92.4815 103.125 92.5033C102.921 92.5252 102.717 92.4655 102.558 92.3376L62.297 60.0367C60.1103 58.2824 58.7132 55.735 58.4128 52.955C58.1125 50.1749 58.9336 47.3899 60.6954 45.2127C62.4573 43.0354 65.0157 41.6442 67.8077 41.3452C70.5997 41.0461 73.3967 41.8637 75.5833 43.618L115.844 75.9189C115.923 75.9823 115.989 76.0605 116.037 76.1492C116.086 76.2379 116.117 76.3353 116.128 76.4358C116.139 76.5364 116.13 76.638 116.101 76.735C116.072 76.832 116.025 76.9225 115.961 77.0012C115.897 77.0799 115.819 77.1454 115.73 77.1938C115.641 77.2423 115.543 77.2727 115.442 77.2835C115.341 77.2943 115.239 77.2852 115.141 77.2567C115.044 77.2281 114.953 77.1808 114.874 77.1173L74.6135 44.8164C73.6889 44.0741 72.6265 43.5203 71.4869 43.1869C70.3473 42.8534 69.153 42.7467 67.972 42.873C66.791 42.9993 65.6466 43.356 64.6041 43.9227C63.5616 44.4895 62.6415 45.2552 61.8963 46.1761C61.151 47.097 60.5953 48.1551 60.2609 49.2899C59.9264 50.4247 59.8198 51.614 59.9471 52.7899C60.0743 53.9657 60.433 55.1051 61.0026 56.1429C61.5722 57.1807 62.3416 58.0966 63.2668 58.8383L103.527 91.1391C103.687 91.2672 103.789 91.4531 103.811 91.656C103.833 91.8589 103.773 92.0622 103.644 92.2212Z" fill="#8F9BBA"/>
<path d="M112.282 79.5841L70.1562 45.7864C70.1404 45.7738 70.1273 45.7581 70.1175 45.7404C70.1078 45.7226 70.1017 45.7032 70.0995 45.6831C70.0973 45.663 70.0992 45.6426 70.1049 45.6233C70.1106 45.6039 70.1201 45.5858 70.1328 45.57C70.1456 45.5543 70.1613 45.5412 70.1791 45.5315C70.1969 45.5218 70.2165 45.5157 70.2367 45.5136C70.2569 45.5114 70.2773 45.5132 70.2967 45.5189C70.3162 45.5246 70.3344 45.5341 70.3502 45.5468L112.476 79.3444C112.492 79.357 112.505 79.3727 112.515 79.3904C112.525 79.4082 112.531 79.4277 112.533 79.4478C112.535 79.4679 112.534 79.4882 112.528 79.5076C112.522 79.5271 112.513 79.5452 112.5 79.5609C112.487 79.5767 112.471 79.5898 112.454 79.5994C112.436 79.6091 112.416 79.6152 112.396 79.6174C112.376 79.6195 112.355 79.6177 112.336 79.612C112.316 79.6063 112.298 79.5968 112.282 79.5841Z" fill="#CCCCCC"/>
<path d="M109.955 82.4604L67.8284 48.6628C67.7966 48.6372 67.7762 48.6 67.7719 48.5594C67.7675 48.5189 67.7795 48.4783 67.8052 48.4465C67.8309 48.4147 67.8682 48.3944 67.9089 48.3901C67.9497 48.3857 67.9905 48.3976 68.0224 48.4231L110.149 82.2207C110.164 82.2334 110.178 82.249 110.187 82.2668C110.197 82.2845 110.203 82.304 110.205 82.3241C110.208 82.3442 110.206 82.3646 110.2 82.384C110.194 82.4034 110.185 82.4215 110.172 82.4373C110.159 82.453 110.144 82.4661 110.126 82.4758C110.108 82.4855 110.088 82.4916 110.068 82.4937C110.048 82.4959 110.028 82.494 110.008 82.4883C109.989 82.4826 109.97 82.4731 109.955 82.4604Z" fill="#CCCCCC"/>
<path d="M107.627 85.3368L65.501 51.5391C65.469 51.5135 65.4486 51.4763 65.4442 51.4358C65.4399 51.3952 65.4518 51.3545 65.4776 51.3227C65.5033 51.2909 65.5406 51.2706 65.5814 51.2663C65.6222 51.2619 65.663 51.2738 65.6949 51.2994L107.821 85.0971C107.837 85.1097 107.85 85.1254 107.86 85.1431C107.87 85.1609 107.876 85.1804 107.878 85.2004C107.88 85.2205 107.878 85.2409 107.872 85.2603C107.867 85.2797 107.857 85.2977 107.844 85.3135C107.832 85.3292 107.816 85.3423 107.798 85.352C107.78 85.3617 107.761 85.3678 107.741 85.3699C107.72 85.3721 107.7 85.3703 107.681 85.3646C107.661 85.3589 107.643 85.3494 107.627 85.3368Z" fill="#CCCCCC"/>
<path d="M105.3 88.213L63.1733 54.4154C63.1575 54.4027 63.1444 54.387 63.1346 54.3693C63.1249 54.3515 63.1188 54.3321 63.1166 54.312C63.1144 54.2919 63.1163 54.2716 63.122 54.2522C63.1277 54.2328 63.1372 54.2147 63.1499 54.1989C63.1627 54.1832 63.1784 54.1701 63.1962 54.1604C63.214 54.1507 63.2336 54.1446 63.2538 54.1425C63.2739 54.1403 63.2944 54.1421 63.3138 54.1478C63.3333 54.1535 63.3515 54.163 63.3673 54.1757L105.493 87.9733C105.509 87.9859 105.522 88.0016 105.532 88.0193C105.542 88.0371 105.548 88.0566 105.55 88.0767C105.552 88.0968 105.551 88.1171 105.545 88.1365C105.539 88.156 105.53 88.1741 105.517 88.1898C105.504 88.2056 105.489 88.2187 105.471 88.2283C105.453 88.238 105.433 88.2441 105.413 88.2463C105.393 88.2484 105.372 88.2466 105.353 88.2409C105.333 88.2352 105.315 88.2257 105.3 88.213Z" fill="#CCCCCC"/>
<path d="M117.845 93H3.15457C3.11358 93 3.07426 92.9837 3.04527 92.9549C3.01628 92.926 3 92.8869 3 92.846C3 92.8052 3.01628 92.7661 3.04527 92.7372C3.07426 92.7084 3.11358 92.6921 3.15457 92.6921H117.845C117.886 92.6921 117.926 92.7084 117.955 92.7372C117.984 92.7661 118 92.8052 118 92.846C118 92.8869 117.984 92.926 117.955 92.9549C117.926 92.9837 117.886 93 117.845 93Z" fill="#CCCCCC"/>
<path d="M55.2573 70.1196L53.4903 70.1195L52.6499 63.3328L55.258 63.3331L55.2573 70.1196Z" fill="#FFB8B8"/>
<path d="M52.2278 69.6167H55.6357V71.7532H50.082C50.082 71.4727 50.1375 71.1948 50.2454 70.9356C50.3532 70.6764 50.5112 70.4409 50.7105 70.2425C50.9097 70.0441 51.1463 69.8867 51.4066 69.7793C51.667 69.672 51.946 69.6167 52.2278 69.6167Z" fill="#2F2E41"/>
<path d="M37.2041 70.1196L35.4371 70.1195L34.5967 63.3328L37.2047 63.3331L37.2041 70.1196Z" fill="#FFB8B8"/>
<path d="M34.175 69.6167H37.583V71.7532H32.0293C32.0293 71.4727 32.0848 71.1948 32.1926 70.9356C32.3005 70.6764 32.4585 70.4409 32.6578 70.2425C32.857 70.0441 33.0936 69.8867 33.3539 69.7793C33.6142 69.672 33.8932 69.6167 34.175 69.6167Z" fill="#2F2E41"/>
<path d="M43.1064 19.7782V19.0087C43.1064 17.6923 43.6316 16.4298 44.5665 15.4989C45.5013 14.5681 46.7692 14.0452 48.0913 14.0452C49.4134 14.0452 50.6813 14.5681 51.6162 15.4989C52.551 16.4298 53.0762 17.6923 53.0762 19.0087V19.7782C53.0762 20.7273 52.6976 21.6374 52.0236 22.3085C51.3497 22.9796 50.4356 23.3566 49.4825 23.3566H46.7002C46.2283 23.3566 45.7609 23.264 45.3249 23.0842C44.8889 22.9044 44.4927 22.6408 44.159 22.3085C43.8253 21.9762 43.5606 21.5817 43.38 21.1476C43.1994 20.7134 43.1064 20.2481 43.1064 19.7782Z" fill="#1B2559"/>
<path d="M48.0913 23.6213C50.188 23.6213 51.8877 21.9289 51.8877 19.8412C51.8877 17.7535 50.188 16.061 48.0913 16.061C45.9946 16.061 44.2949 17.7535 44.2949 19.8412C44.2949 21.9289 45.9946 23.6213 48.0913 23.6213Z" fill="#FFB8B8"/>
<path d="M27.4412 32.8331C27.5952 32.6882 27.7793 32.5788 27.9805 32.5124C28.1816 32.4461 28.3949 32.4245 28.6054 32.4491C28.8158 32.4737 29.0183 32.5439 29.1985 32.6549C29.3787 32.7658 29.5323 32.9148 29.6485 33.0913L32.9029 32.4783L33.7594 34.3567L29.1513 35.158C28.8406 35.3327 28.4764 35.3878 28.1277 35.3129C27.779 35.2381 27.4699 35.0384 27.2591 34.7519C27.0483 34.4653 26.9504 34.1117 26.984 33.758C27.0176 33.4044 27.1802 33.0753 27.4412 32.8331Z" fill="#FFB8B8"/>
<path d="M45.174 26.066L39.8374 29.5666L30.8324 32.4297C30.713 32.4679 30.6106 32.5461 30.5427 32.651C30.4747 32.7559 30.4453 32.8811 30.4596 33.0051L30.656 34.6899C30.6647 34.7644 30.689 34.8364 30.7273 34.901C30.7655 34.9657 30.8169 35.0217 30.8782 35.0655C30.9395 35.1092 31.0093 35.1397 31.0831 35.155C31.1569 35.1703 31.2331 35.1701 31.3068 35.1544L39.7818 33.3456C40.192 33.2585 40.5798 33.0885 40.9212 32.8461L46.9167 28.5987C47.134 28.4439 47.3074 28.2357 47.4201 27.9944C47.5327 27.7531 47.5807 27.4869 47.5594 27.2216C47.5374 26.956 47.4464 26.7007 47.2952 26.4807C47.1441 26.2608 46.938 26.0838 46.6973 25.9672C46.4566 25.8506 46.1896 25.7984 45.9225 25.8157C45.6554 25.8331 45.3975 25.9193 45.174 26.066Z" fill="#FF5B5B"/>
<path d="M53.5216 68.1935C53.386 68.1936 53.2533 68.1543 53.1397 68.0804C53.0261 68.0066 52.9366 67.9014 52.882 67.7778L44.781 47.8467C44.7621 47.8034 44.7304 47.767 44.69 47.7423C44.6497 47.7176 44.6028 47.7057 44.5555 47.7084C44.5082 47.711 44.4629 47.728 44.4256 47.7571C44.3883 47.7862 44.3608 47.8259 44.3469 47.871L37.7378 67.2747C37.7099 67.365 37.6637 67.4486 37.6021 67.5205C37.5406 67.5924 37.4649 67.651 37.3797 67.6927C37.2946 67.7343 37.2018 67.7582 37.107 67.7629C37.0122 67.7675 36.9175 67.7528 36.8287 67.7196L34.6124 66.8921C34.4921 66.8476 34.3865 66.7707 34.3075 66.6701C34.2284 66.5694 34.179 66.4489 34.1646 66.3219C33.1675 57.6735 41.8622 35.8437 41.9501 35.6243L41.9745 35.5635L49.9004 37.3092L49.9169 37.3271C53.079 40.762 55.6782 62.4266 56.1672 66.7347C56.1854 66.8903 56.1498 67.0475 56.0663 67.1803C55.9829 67.3131 55.8564 67.4136 55.7079 67.4653L53.7516 68.1542C53.6778 68.1802 53.6 68.1935 53.5216 68.1935Z" fill="#555379"/>
<path d="M46.6926 38.0121C44.7723 38.0121 42.6314 37.6308 41.9724 36.0573L41.9572 36.0212L41.9777 35.9877C42.4979 35.1379 43.1854 33.6882 42.8158 33.4161C42.0879 32.8802 41.7347 31.9986 41.7661 30.7958C41.8342 28.1846 43.621 25.8663 46.2124 25.027C46.9358 24.7965 47.6719 24.6078 48.4171 24.4618C48.9603 24.3526 49.5211 24.3646 50.0592 24.4969C50.5972 24.6292 51.0992 24.8785 51.529 25.2269C51.9641 25.5776 52.3159 26.02 52.559 26.5221C52.8021 27.0243 52.9305 27.5738 52.9349 28.1313C52.9621 30.9217 52.5306 34.8083 50.3208 37.4765C50.2172 37.6004 50.0731 37.6838 49.9138 37.7122C48.8507 37.9037 47.773 38.004 46.6926 38.0121Z" fill="#FF5B5B"/>
<path d="M45.9783 37.9074C46.0828 37.5341 46.331 37.217 46.669 37.025C47.007 36.8329 47.4075 36.7814 47.7834 36.8817C47.8601 36.9031 47.935 36.9307 48.0072 36.9643L50.4782 34.7251L52.1967 35.8779L48.663 38.9916C48.5034 39.2781 48.2522 39.5032 47.9494 39.6311C47.6465 39.759 47.3094 39.7824 46.9916 39.6975C46.8065 39.6471 46.6333 39.5606 46.482 39.4431C46.3306 39.3256 46.2042 39.1794 46.11 39.0129C46.0157 38.8464 45.9556 38.663 45.933 38.4733C45.9104 38.2835 45.9257 38.0912 45.9783 37.9074Z" fill="#FFB8B8"/>
<path d="M50.0867 37.9359C49.9264 37.936 49.7709 37.8808 49.6469 37.7797L48.6724 36.9867C48.5912 36.9207 48.526 36.8371 48.4818 36.7424C48.4376 36.6477 48.4155 36.5442 48.4171 36.4398C48.4187 36.3353 48.444 36.2326 48.4912 36.1393C48.5383 36.046 48.606 35.9645 48.6893 35.9009L52.7764 32.7797C52.8248 32.7425 52.8566 32.6878 52.8648 32.6275C52.873 32.5671 52.8569 32.506 52.8202 32.4573L50.2975 29.1366C50.0045 28.7521 49.8575 28.2767 49.8826 27.7946C49.9077 27.3125 50.1033 26.8548 50.4347 26.5026C50.7838 26.1272 51.2618 25.8962 51.774 25.8554C52.2862 25.8146 52.795 25.967 53.1996 26.2824L53.2156 26.2991L55.8498 30.0548C56.1346 30.2772 56.364 30.5622 56.5199 30.8874C56.6759 31.2126 56.7542 31.5694 56.7489 31.9297C56.7435 32.2901 56.6545 32.6444 56.4889 32.9648C56.3232 33.2853 56.0855 33.5633 55.7941 33.7772L50.5008 37.8001C50.3809 37.8883 50.2358 37.9359 50.0867 37.9359Z" fill="#FF5B5B"/>
<path d="M44.7285 18.7778V16.9023L48.0913 15.4402L51.2977 16.9023V18.7778C51.2977 18.8595 51.2652 18.9378 51.2072 18.9955C51.1492 19.0532 51.0706 19.0857 50.9886 19.0857H45.0377C44.9557 19.0857 44.877 19.0532 44.8191 18.9955C44.7611 18.9378 44.7285 18.8595 44.7285 18.7778Z" fill="#1B2559"/>
<path d="M47.9369 14.294C47.4424 12.7182 48.4808 10.9123 50.016 10.2885C51.5511 9.66478 53.3877 10.1008 54.683 11.1313C55.9783 12.1618 56.782 13.7053 57.2078 15.3008C57.6337 16.8963 57.7145 18.5601 57.7931 20.2091C59.6792 20.5541 60.9622 22.7816 60.3088 24.5768C59.6555 26.3719 57.2371 27.2638 55.567 26.3255C53.8968 25.3872 53.4131 22.865 54.6185 21.3799C55.1888 20.6772 55.5074 19.8051 55.5238 18.9018C55.5402 17.9984 55.2535 17.1154 54.709 16.3927C54.1645 15.6699 53.3934 15.1487 52.5178 14.9116C51.6422 14.6745 50.7122 14.735 49.8751 15.0836C48.9455 15.4707 47.7792 14.465 47.9369 14.294Z" fill="#1B2559"/>
<path d="M26.7442 25.5574C24.4861 25.5426 22.2561 25.0563 20.1985 24.1299C20.076 24.0755 19.972 23.9869 19.8992 23.8747C19.8265 23.7626 19.788 23.6318 19.7886 23.4982V17.8933C19.7888 17.7096 19.8621 17.5336 19.9925 17.4038C20.1229 17.2739 20.2997 17.2009 20.4841 17.2007H33.0043C33.1887 17.2009 33.3655 17.2739 33.4959 17.4038C33.6263 17.5336 33.6997 17.7096 33.6999 17.8933V23.4983C33.7004 23.6318 33.662 23.7626 33.5892 23.8747C33.5164 23.9869 33.4125 24.0755 33.29 24.1299C31.2323 25.0563 29.0024 25.5426 26.7442 25.5574Z" fill="#7C3AED"/>
<path d="M26.7424 21.0166C26.6496 21.0167 26.5577 20.9983 26.4722 20.9625L16.5438 16.7916C16.4158 16.7379 16.3069 16.6471 16.2311 16.5311C16.1554 16.4152 16.1162 16.2792 16.1188 16.1409C16.1213 16.0025 16.1654 15.8681 16.2454 15.755C16.3254 15.6418 16.4376 15.5551 16.5675 15.5061L26.4959 11.7557C26.6559 11.695 26.8327 11.6954 26.9923 11.7567L36.7877 15.5071C36.9169 15.5566 37.0284 15.6433 37.1078 15.7562C37.1872 15.8691 37.231 16.003 37.2335 16.1408C37.2361 16.2785 37.1973 16.414 37.1221 16.5297C37.0469 16.6454 36.9388 16.7362 36.8115 16.7904L27.016 20.9611C26.9295 20.9978 26.8365 21.0167 26.7424 21.0166Z" fill="#7C3AED"/>
<path d="M20.9479 24.5112C21.4601 24.5112 21.8753 24.0978 21.8753 23.5877C21.8753 23.0777 21.4601 22.6643 20.9479 22.6643C20.4357 22.6643 20.0205 23.0777 20.0205 23.5877C20.0205 24.0978 20.4357 24.5112 20.9479 24.5112Z" fill="#3F3D56"/>
<path opacity="0.2" d="M36.8453 16.1984L27.0497 20.3692C26.9734 20.4017 26.8912 20.4186 26.8082 20.4188C26.7251 20.419 26.6429 20.4025 26.5663 20.3704L16.638 16.1997C16.5133 16.1485 16.4093 16.0575 16.3424 15.9409C16.2986 16.0165 16.2715 16.1005 16.2628 16.1873C16.2541 16.2742 16.2641 16.3618 16.2921 16.4445C16.32 16.5272 16.3653 16.6031 16.425 16.667C16.4846 16.7309 16.5572 16.7815 16.638 16.8153L26.5663 20.986C26.6429 21.0181 26.7251 21.0346 26.8082 21.0344C26.8912 21.0342 26.9734 21.0173 27.0497 20.9848L36.8453 16.8141C36.9257 16.7799 36.9979 16.7292 37.0571 16.6653C37.1163 16.6013 37.1613 16.5256 37.1889 16.4431C37.2166 16.3605 37.2264 16.2731 37.2176 16.1866C37.2089 16.1 37.1818 16.0163 37.1381 15.9409C37.0717 16.0565 36.9688 16.1471 36.8453 16.1984Z" fill="black"/>
<path d="M21.0257 23.5842C21.0667 23.5842 21.106 23.568 21.135 23.5391C21.164 23.5102 21.1802 23.4711 21.1802 23.4303V18.2803L26.2781 16.4311C26.3191 16.4317 26.3587 16.4161 26.3881 16.3876C26.4175 16.3592 26.4344 16.3203 26.435 16.2795C26.4356 16.2387 26.4199 16.1993 26.3914 16.17C26.3628 16.1407 26.3237 16.1239 26.2827 16.1233L21.1848 17.9725C21.1438 17.9716 21.103 17.9789 21.0649 17.9941C21.0269 18.0094 20.9923 18.0321 20.9633 18.061C20.934 18.0896 20.9107 18.1237 20.8949 18.1614C20.8791 18.1991 20.871 18.2395 20.8711 18.2803V23.4303C20.8711 23.4711 20.8874 23.5102 20.9164 23.5391C20.9454 23.568 20.9847 23.5842 21.0257 23.5842Z" fill="#3F3D56"/>
</g>
<defs>
<clipPath id="clip0_1004_100">
<rect width="115" height="83" fill="white" transform="translate(3 10)"/>
</clipPath>
</defs>
</svg>
